<?xml version="1.0" encoding="UTF-8" standalone="no"?>
<!DOCTYPE svg PUBLIC "-//W3C//DTD SVG 1.1//EN" "http://www.w3.org/Graphics/SVG/1.1/DTD/svg11.dtd">
<svg width="100%" height="100%" viewBox="0 0 1080 1080" version="1.1" xmlns="http://www.w3.org/2000/svg" xmlns:xlink="http://www.w3.org/1999/xlink" xml:space="preserve" xmlns:serif="http://www.serif.com/" style="fill-rule:evenodd;clip-rule:evenodd;stroke-linecap:round;stroke-linejoin:round;stroke-miterlimit:1.5;">
    <g transform="matrix(1,0,0,1,-1116.18,0)">
        <g id="Artboard2" transform="matrix(1,0,0,1,1116.18,0)">
            <rect x="0" y="0" width="1080" height="1080" style="fill:none;"/>
            <g transform="matrix(0.563662,-0.151033,0.151033,0.563662,54.8293,368.54)">
                <text x="384.649px" y="524.007px" style="font-family:'FromtheDead', 'From_the_Dead';font-size:300.796px;">PULSE</text>
            </g>
            <g transform="matrix(0.33015,-9.83563e-18,2.45891e-18,0.0825376,235.623,637.666)">
                <text x="499.548px" y="524.007px" style="font-family:'HomePlanetBB-Regular', 'Home Planet BB';font-size:365.995px;">S<tspan x="643.384px 778.436px 936.546px 1094.66px 1169.68px 1327.06px " y="524.007px 524.007px 524.007px 524.007px 524.007px 524.007px ">TUDIOS</tspan></text>
            </g>
            <g transform="matrix(0.357424,-1.06481e-17,1.06481e-17,0.357424,194.952,556.621)">
                <text x="758.088px" y="524.007px" style="font-family:'HomePlanetBB-Regular', 'Home Planet BB';font-size:116.575px;">E<tspan x="817.891px 878.393px 927.588px 988.673px 1053.72px 1118.54px 1163.3px " y="524.007px 524.007px 524.007px 524.007px 524.007px 524.007px 524.007px ">ST-2018</tspan></text>
            </g>
            <g transform="matrix(0.810793,0,0,-0.810793,119.129,946.924)">
                <g transform="matrix(0.784732,0.619835,-0.706623,0.894608,492.921,-297.723)">
                    <path d="M166.997,540C166.998,663.379 226.041,773.075 317.39,842.352C317.39,842.352 233.992,803.708 166.997,842.352C141.932,791.96 166.997,540 166.997,540Z" style="fill:none;stroke:black;stroke-width:1.15px;"/>
                </g>
                <g transform="matrix(-0.801818,0.597568,-0.681237,-0.914087,1345.86,691.136)">
                    <path d="M925.491,842.352C888.01,764.932 775.098,842.352 775.098,842.352C866.447,773.075 925.49,663.379 925.491,540C925.491,540 915.526,773.348 925.491,842.352Z" style="fill:none;stroke:black;stroke-width:1.15px;"/>
                </g>
            </g>
            <g transform="matrix(-0.810793,0,0,-0.810793,988.72,946.924)">
                <g transform="matrix(0.784732,0.619835,-0.706623,0.894608,492.921,-297.723)">
                    <path d="M166.997,540C166.998,663.379 226.041,773.075 317.39,842.352C317.39,842.352 233.992,803.708 166.997,842.352C141.932,791.96 166.997,540 166.997,540Z" style="fill:none;stroke:black;stroke-width:1.15px;"/>
                </g>
                <g transform="matrix(-0.801818,0.597568,-0.681237,-0.914087,1345.86,691.136)">
                    <path d="M925.491,842.352C888.01,764.932 775.098,842.352 775.098,842.352C866.447,773.075 925.49,663.379 925.491,540C925.491,540 915.526,773.348 925.491,842.352Z" style="fill:none;stroke:black;stroke-width:1.15px;"/>
                </g>
            </g>
            <g transform="matrix(-0.444173,5.43955e-17,5.25146e-17,0.428814,314.061,385.221)">
                <g transform="matrix(0.784732,0.619835,-0.706623,0.894608,492.921,-297.723)">
                    <path d="M166.997,540C166.998,663.379 226.041,773.075 317.39,842.352C317.39,842.352 233.992,803.708 166.997,842.352C141.932,791.96 166.997,540 166.997,540Z" style="fill:none;stroke:black;stroke-width:2.17px;"/>
                </g>
                <g transform="matrix(-0.801818,0.597568,-0.681237,-0.914087,1345.86,691.136)">
                    <path d="M925.491,842.352C888.01,764.932 775.098,842.352 775.098,842.352C866.447,773.075 925.49,663.379 925.491,540C925.491,540 915.526,773.348 925.491,842.352Z" style="fill:none;stroke:black;stroke-width:2.1px;"/>
                </g>
            </g>
            <g transform="matrix(0.444173,5.43955e-17,-5.25146e-17,0.428814,800.56,385.221)">
                <g transform="matrix(0.784732,0.619835,-0.706623,0.894608,492.921,-297.723)">
                    <path d="M166.997,540C166.998,663.379 226.041,773.075 317.39,842.352C317.39,842.352 233.992,803.708 166.997,842.352C141.932,791.96 166.997,540 166.997,540Z" style="fill:none;stroke:black;stroke-width:2.17px;"/>
                </g>
                <g transform="matrix(-0.801818,0.597568,-0.681237,-0.914087,1345.86,691.136)">
                    <path d="M925.491,842.352C888.01,764.932 775.098,842.352 775.098,842.352C866.447,773.075 925.49,663.379 925.491,540C925.491,540 915.526,773.348 925.491,842.352Z" style="fill:none;stroke:black;stroke-width:2.1px;"/>
                </g>
            </g>
            <g transform="matrix(4.96468e-17,0.810793,0.810793,-4.96468e-17,138.721,90.1534)">
                <g transform="matrix(0.784732,0.619835,-0.706623,0.894608,492.921,-297.723)">
                    <path d="M166.997,540C166.998,663.379 226.041,773.075 317.39,842.352C317.39,842.352 233.992,803.708 166.997,842.352C141.932,791.96 166.997,540 166.997,540Z" style="fill:none;stroke:black;stroke-width:1.15px;"/>
                </g>
                <g transform="matrix(-0.801818,0.597568,-0.681237,-0.914087,1345.86,691.136)">
                    <path d="M925.491,842.352C888.01,764.932 775.098,842.352 775.098,842.352C866.447,773.075 925.49,663.379 925.491,540C925.491,540 915.526,773.348 925.491,842.352Z" style="fill:none;stroke:black;stroke-width:1.15px;"/>
                </g>
            </g>
            <g transform="matrix(-4.96468e-17,-0.810793,0.810793,-4.96468e-17,138.721,966.516)">
                <g transform="matrix(0.784732,0.619835,-0.706623,0.894608,492.921,-297.723)">
                    <path d="M166.997,540C166.998,663.379 226.041,773.075 317.39,842.352C317.39,842.352 233.992,803.708 166.997,842.352C141.932,791.96 166.997,540 166.997,540Z" style="fill:none;stroke:black;stroke-width:1.15px;"/>
                </g>
                <g transform="matrix(-0.801818,0.597568,-0.681237,-0.914087,1345.86,691.136)">
                    <path d="M925.491,842.352C888.01,764.932 775.098,842.352 775.098,842.352C866.447,773.075 925.49,663.379 925.491,540C925.491,540 915.526,773.348 925.491,842.352Z" style="fill:none;stroke:black;stroke-width:1.15px;"/>
                </g>
            </g>
            <g transform="matrix(-8.15933e-17,-0.444173,-0.428814,7.87719e-17,700.423,285.085)">
                <g transform="matrix(0.784732,0.619835,-0.706623,0.894608,492.921,-297.723)">
                    <path d="M166.997,540C166.998,663.379 226.041,773.075 317.39,842.352C317.39,842.352 233.992,803.708 166.997,842.352C141.932,791.96 166.997,540 166.997,540Z" style="fill:none;stroke:black;stroke-width:2.17px;"/>
                </g>
                <g transform="matrix(-0.801818,0.597568,-0.681237,-0.914087,1345.86,691.136)">
                    <path d="M925.491,842.352C888.01,764.932 775.098,842.352 775.098,842.352C866.447,773.075 925.49,663.379 925.491,540C925.491,540 915.526,773.348 925.491,842.352Z" style="fill:none;stroke:black;stroke-width:2.1px;"/>
                </g>
            </g>
            <g transform="matrix(-2.71978e-17,0.444173,-0.428814,-2.62573e-17,700.423,771.584)">
                <g transform="matrix(0.784732,0.619835,-0.706623,0.894608,492.921,-297.723)">
                    <path d="M166.997,540C166.998,663.379 226.041,773.075 317.39,842.352C317.39,842.352 233.992,803.708 166.997,842.352C141.932,791.96 166.997,540 166.997,540Z" style="fill:none;stroke:black;stroke-width:2.17px;"/>
                </g>
                <g transform="matrix(-0.801818,0.597568,-0.681237,-0.914087,1345.86,691.136)">
                    <path d="M925.491,842.352C888.01,764.932 775.098,842.352 775.098,842.352C866.447,773.075 925.49,663.379 925.491,540C925.491,540 915.526,773.348 925.491,842.352Z" style="fill:none;stroke:black;stroke-width:2.1px;"/>
                </g>
            </g>
            <g transform="matrix(-4.96468e-17,0.810793,-0.810793,-4.96468e-17,981.498,90.1534)">
                <g transform="matrix(0.784732,0.619835,-0.706623,0.894608,492.921,-297.723)">
                    <path d="M166.997,540C166.998,663.379 226.041,773.075 317.39,842.352C317.39,842.352 233.992,803.708 166.997,842.352C141.932,791.96 166.997,540 166.997,540Z" style="fill:none;stroke:black;stroke-width:1.15px;"/>
                </g>
                <g transform="matrix(-0.801818,0.597568,-0.681237,-0.914087,1345.86,691.136)">
                    <path d="M925.491,842.352C888.01,764.932 775.098,842.352 775.098,842.352C866.447,773.075 925.49,663.379 925.491,540C925.491,540 915.526,773.348 925.491,842.352Z" style="fill:none;stroke:black;stroke-width:1.15px;"/>
                </g>
            </g>
            <g transform="matrix(2.71978e-17,0.444173,0.428814,-2.62573e-17,419.796,771.584)">
                <g transform="matrix(0.784732,0.619835,-0.706623,0.894608,492.921,-297.723)">
                    <path d="M166.997,540C166.998,663.379 226.041,773.075 317.39,842.352C317.39,842.352 233.992,803.708 166.997,842.352C141.932,791.96 166.997,540 166.997,540Z" style="fill:none;stroke:black;stroke-width:2.17px;"/>
                </g>
                <g transform="matrix(-0.801818,0.597568,-0.681237,-0.914087,1345.86,691.136)">
                    <path d="M925.491,842.352C888.01,764.932 775.098,842.352 775.098,842.352C866.447,773.075 925.49,663.379 925.491,540C925.491,540 915.526,773.348 925.491,842.352Z" style="fill:none;stroke:black;stroke-width:2.1px;"/>
                </g>
            </g>
            <g transform="matrix(-0.573317,0.573317,0.573317,0.573317,571.164,-77.4938)">
                <g transform="matrix(0.784732,0.619835,-0.706623,0.894608,492.921,-297.723)">
                    <path d="M166.997,540C166.998,663.379 226.041,773.075 317.39,842.352C317.39,842.352 233.992,803.708 166.997,842.352C141.932,791.96 166.997,540 166.997,540Z" style="fill:none;stroke:black;stroke-width:1.15px;"/>
                </g>
                <g transform="matrix(-0.801818,0.597568,-0.681237,-0.914087,1345.86,691.136)">
                    <path d="M925.491,842.352C888.01,764.932 775.098,842.352 775.098,842.352C866.447,773.075 925.49,663.379 925.491,540C925.491,540 915.526,773.348 925.491,842.352Z" style="fill:none;stroke:black;stroke-width:1.15px;"/>
                </g>
            </g>
            <g transform="matrix(0.573317,-0.573317,0.573317,0.573317,-48.5179,542.188)">
                <g transform="matrix(0.784732,0.619835,-0.706623,0.894608,492.921,-297.723)">
                    <path d="M166.997,540C166.998,663.379 226.041,773.075 317.39,842.352C317.39,842.352 233.992,803.708 166.997,842.352C141.932,791.96 166.997,540 166.997,540Z" style="fill:none;stroke:black;stroke-width:1.15px;"/>
                </g>
                <g transform="matrix(-0.801818,0.597568,-0.681237,-0.914087,1345.86,691.136)">
                    <path d="M925.491,842.352C888.01,764.932 775.098,842.352 775.098,842.352C866.447,773.075 925.49,663.379 925.491,540C925.491,540 915.526,773.348 925.491,842.352Z" style="fill:none;stroke:black;stroke-width:1.15px;"/>
                </g>
            </g>
            <g transform="matrix(0.314078,-0.314078,-0.303217,-0.303217,830.51,457.527)">
                <g transform="matrix(0.784732,0.619835,-0.706623,0.894608,492.921,-297.723)">
                    <path d="M166.997,540C166.998,663.379 226.041,773.075 317.39,842.352C317.39,842.352 233.992,803.708 166.997,842.352C141.932,791.96 166.997,540 166.997,540Z" style="fill:none;stroke:black;stroke-width:2.17px;"/>
                </g>
                <g transform="matrix(-0.801818,0.597568,-0.681237,-0.914087,1345.86,691.136)">
                    <path d="M925.491,842.352C888.01,764.932 775.098,842.352 775.098,842.352C866.447,773.075 925.49,663.379 925.491,540C925.491,540 915.526,773.348 925.491,842.352Z" style="fill:none;stroke:black;stroke-width:2.1px;"/>
                </g>
            </g>
            <g transform="matrix(-0.314078,0.314078,-0.303217,-0.303217,486.503,801.534)">
                <g transform="matrix(0.784732,0.619835,-0.706623,0.894608,492.921,-297.723)">
                    <path d="M166.997,540C166.998,663.379 226.041,773.075 317.39,842.352C317.39,842.352 233.992,803.708 166.997,842.352C141.932,791.96 166.997,540 166.997,540Z" style="fill:none;stroke:black;stroke-width:2.17px;"/>
                </g>
                <g transform="matrix(-0.801818,0.597568,-0.681237,-0.914087,1345.86,691.136)">
                    <path d="M925.491,842.352C888.01,764.932 775.098,842.352 775.098,842.352C866.447,773.075 925.49,663.379 925.491,540C925.491,540 915.526,773.348 925.491,842.352Z" style="fill:none;stroke:black;stroke-width:2.1px;"/>
                </g>
            </g>
            <g transform="matrix(-0.573317,-0.573317,-0.573317,0.573317,1163.14,542.188)">
                <g transform="matrix(0.784732,0.619835,-0.706623,0.894608,492.921,-297.723)">
                    <path d="M166.997,540C166.998,663.379 226.041,773.075 317.39,842.352C317.39,842.352 233.992,803.708 166.997,842.352C141.932,791.96 166.997,540 166.997,540Z" style="fill:none;stroke:black;stroke-width:1.15px;"/>
                </g>
                <g transform="matrix(-0.801818,0.597568,-0.681237,-0.914087,1345.86,691.136)">
                    <path d="M925.491,842.352C888.01,764.932 775.098,842.352 775.098,842.352C866.447,773.075 925.49,663.379 925.491,540C925.491,540 915.526,773.348 925.491,842.352Z" style="fill:none;stroke:black;stroke-width:1.15px;"/>
                </g>
            </g>
            <g transform="matrix(0.573317,0.573317,-0.573317,0.573317,543.457,-77.4938)">
                <g transform="matrix(0.784732,0.619835,-0.706623,0.894608,492.921,-297.723)">
                    <path d="M166.997,540C166.998,663.379 226.041,773.075 317.39,842.352C317.39,842.352 233.992,803.708 166.997,842.352C141.932,791.96 166.997,540 166.997,540Z" style="fill:none;stroke:black;stroke-width:1.15px;"/>
                </g>
                <g transform="matrix(-0.801818,0.597568,-0.681237,-0.914087,1345.86,691.136)">
                    <path d="M925.491,842.352C888.01,764.932 775.098,842.352 775.098,842.352C866.447,773.075 925.49,663.379 925.491,540C925.491,540 915.526,773.348 925.491,842.352Z" style="fill:none;stroke:black;stroke-width:1.15px;"/>
                </g>
            </g>
            <g transform="matrix(0.314078,0.314078,0.303217,-0.303217,628.117,801.534)">
                <g transform="matrix(0.784732,0.619835,-0.706623,0.894608,492.921,-297.723)">
                    <path d="M166.997,540C166.998,663.379 226.041,773.075 317.39,842.352C317.39,842.352 233.992,803.708 166.997,842.352C141.932,791.96 166.997,540 166.997,540Z" style="fill:none;stroke:black;stroke-width:2.17px;"/>
                </g>
                <g transform="matrix(-0.801818,0.597568,-0.681237,-0.914087,1345.86,691.136)">
                    <path d="M925.491,842.352C888.01,764.932 775.098,842.352 775.098,842.352C866.447,773.075 925.49,663.379 925.491,540C925.491,540 915.526,773.348 925.491,842.352Z" style="fill:none;stroke:black;stroke-width:2.1px;"/>
                </g>
            </g>
            <g transform="matrix(-0.314078,-0.314078,0.303217,-0.303217,284.111,457.527)">
                <g transform="matrix(0.784732,0.619835,-0.706623,0.894608,492.921,-297.723)">
                    <path d="M166.997,540C166.998,663.379 226.041,773.075 317.39,842.352C317.39,842.352 233.992,803.708 166.997,842.352C141.932,791.96 166.997,540 166.997,540Z" style="fill:none;stroke:black;stroke-width:2.17px;"/>
                </g>
                <g transform="matrix(-0.801818,0.597568,-0.681237,-0.914087,1345.86,691.136)">
                    <path d="M925.491,842.352C888.01,764.932 775.098,842.352 775.098,842.352C866.447,773.075 925.49,663.379 925.491,540C925.491,540 915.526,773.348 925.491,842.352Z" style="fill:none;stroke:black;stroke-width:2.1px;"/>
                </g>
            </g>
        </g>
    </g>
</svg>
